<svg xmlns="http://www.w3.org/2000/svg" width="240.75" viewBox="0 0 240.75 141.75" height="141.75" version="1.0"><defs><clipPath id="a"><path d="M 86.851562 48 L 153.628906 48 L 153.628906 89 L 86.851562 89 Z M 86.851562 48"/></clipPath><clipPath id="b"><path d="M 86.851562 88 L 110 88 L 110 120 L 86.851562 120 Z M 86.851562 88"/></clipPath><clipPath id="c"><path d="M 108 88 L 132 88 L 132 121.714844 L 108 121.714844 Z M 108 88"/></clipPath><clipPath id="d"><path d="M 131 88 L 153.628906 88 L 153.628906 120 L 131 120 Z M 131 88"/></clipPath><clipPath id="e"><path d="M 86.851562 39.671875 L 153.628906 39.671875 L 153.628906 50 L 86.851562 50 Z M 86.851562 39.671875"/></clipPath><clipPath id="f"><path d="M 84 21 L 159.464844 21 L 159.464844 107 L 84 107 Z M 84 21"/></clipPath></defs><g clip-path="url(#a)"><path fill="#D3B094" d="M 86.851562 48.921875 L 153.628906 48.921875 L 153.628906 88.5 L 86.851562 88.5 Z M 86.851562 48.921875"/></g><g clip-path="url(#b)"><path fill="#D3B094" d="M 109.113281 119.769531 L 109.113281 88.109375 L 86.851562 88.109375 C 86.851562 102.730469 96.148438 115.164062 109.113281 119.769531 Z M 109.113281 119.769531"/></g><g clip-path="url(#c)"><path fill="#D3B094" d="M 131.367188 88.109375 L 108.875 88.109375 L 108.875 119.675781 C 112.359375 120.910156 116.339844 121.675781 120.242188 121.675781 C 124.140625 121.675781 127.894531 121.003906 131.367188 119.769531 Z M 131.367188 88.109375"/></g><g clip-path="url(#d)"><path fill="#D3B094" d="M 153.628906 88.109375 L 131.125 88.109375 L 131.125 119.847656 C 144.09375 115.246094 153.628906 102.730469 153.628906 88.109375 Z M 153.628906 88.109375"/></g><g clip-path="url(#e)"><path fill="#D3B094" d="M 86.851562 39.710938 L 153.628906 39.710938 L 153.628906 49.257812 L 86.851562 49.257812 Z M 86.851562 39.710938"/></g><g clip-path="url(#f)"><path fill="#455A41" d="M 105.042969 71.726562 C 109.140625 73.441406 119.320312 77 123.09375 74.09375 C 123.75 73.589844 123.851562 73.039062 123.246094 72.433594 C 120.238281 69.441406 108.980469 71.035156 105.042969 71.726562 Z M 125.964844 89.078125 C 123.460938 91.019531 120.570312 92.085938 117.613281 93.125 C 114.0625 96.839844 112.953125 97.902344 112.445312 103.929688 C 112.316406 105.472656 112.566406 105.992188 113.660156 104.597656 C 114.265625 103.832031 114.800781 102.8125 115.691406 101.457031 C 118.742188 96.824219 123.035156 97.265625 125.964844 89.078125 Z M 136.046875 80.324219 C 133.378906 81.488281 132.15625 82.554688 130.335938 84.703125 C 130.972656 84.59375 131.71875 84.527344 132.597656 84.507812 C 133.753906 84.484375 135.019531 84.136719 135.800781 83.234375 C 136.65625 82.246094 136.488281 81.40625 136.046875 80.324219 Z M 127.734375 85.789062 C 130.605469 82.757812 131.363281 81.027344 135.589844 79.1875 C 135.027344 77.71875 134.992188 76.96875 136.039062 74.894531 C 142.398438 62.277344 143.203125 48.449219 134.101562 37.007812 C 125.957031 26.769531 111.472656 21.066406 98.59375 22.96875 C 93.039062 23.789062 90.667969 26.925781 91.492188 32.570312 C 93.132812 43.773438 102.050781 46.589844 94.375 58.550781 C 92.484375 61.5 91.027344 63.769531 95.359375 66.628906 C 97.734375 68.195312 100.382812 69.628906 103.054688 70.851562 C 107.75 69.925781 120.421875 67.898438 124.109375 71.5625 C 125.25 72.699219 125.089844 74.109375 123.835938 75.074219 C 119.285156 78.574219 107.933594 74.40625 102.898438 72.132812 C 97.914062 73.140625 93.097656 74.574219 89.730469 76.113281 C 86.488281 77.589844 82.710938 79.71875 88.1875 81.453125 C 93.78125 83.222656 96.832031 86 99.515625 88.445312 C 103.222656 91.820312 106.195312 94.527344 114.707031 92.632812 C 120.535156 91.234375 124.15625 89.542969 127.734375 85.789062 Z M 115.554688 93.648438 C 107.476562 95.710938 104.21875 94.382812 98.695312 89.355469 C 96.109375 86.996094 93.164062 84.320312 87.824219 82.628906 C 81.25 80.546875 84.460938 77.164062 89.226562 74.992188 C 92.300781 73.585938 96.558594 72.269531 101.066406 71.269531 C 98.851562 70.1875 96.679688 68.96875 94.691406 67.65625 C 89.339844 64.125 91.082031 61.410156 93.347656 57.886719 C 100.5625 46.640625 91.894531 43.765625 90.28125 32.746094 C 89.355469 26.429688 92.191406 22.671875 98.417969 21.75 C 111.722656 19.785156 126.648438 25.667969 135.058594 36.242188 C 144.464844 48.066406 143.710938 62.394531 137.132812 75.449219 C 136.511719 76.679688 136.371094 77.328125 136.527344 78.066406 C 140.984375 74 144.386719 71.839844 150.320312 70.503906 C 151.105469 70.332031 151.304688 71.441406 150.519531 71.617188 C 145.269531 72.796875 142.074219 74.707031 138.070312 78.234375 C 144.484375 76.25 152.453125 76.277344 158.875 77.078125 C 159.210938 77.117188 159.449219 77.425781 159.40625 77.761719 C 159.367188 78.101562 159.0625 78.339844 158.726562 78.300781 C 152.015625 77.464844 143.636719 77.472656 137.179688 79.867188 C 137.804688 81.394531 137.894531 82.683594 136.726562 84.035156 C 135.707031 85.214844 134.132812 85.703125 132.621094 85.734375 C 128.421875 85.824219 127.9375 87.1875 127.210938 89.238281 C 124.070312 98.082031 119.847656 97.367188 116.710938 102.136719 C 115.875 103.410156 115.261719 104.542969 114.574219 105.355469 C 112.707031 107.550781 111.066406 107.226562 111.238281 103.949219 C 111.445312 100.078125 112.488281 96.152344 115.554688 93.648438" fill-rule="evenodd"/></g></svg>